<svg xmlns="http://www.w3.org/2000/svg" viewBox="0 0 300 300" width="300" height="300" role="img" aria-labelledby="t-cold-pressed">
<title id="t-cold-pressed">Cold-pressed oil extraction</title>
<rect x="80" y="60" width="140" height="40" rx="6" fill="#1B3A8F"/>
<rect x="100" y="100" width="100" height="60" fill="#142D6F"/>
<g fill="#C17F3B">
<circle cx="120" cy="80" r="4"/><circle cx="135" cy="76" r="4"/>
<circle cx="150" cy="82" r="4"/><circle cx="165" cy="76" r="4"/>
<circle cx="180" cy="80" r="4"/>
</g>
<rect x="118" y="160" width="64" height="14" fill="#E8701E"/>
<polygon points="118,174 130,200 170,200 182,174" fill="#C9A200"/>
<g fill="#F5E6A0">
<ellipse cx="150" cy="210" rx="5" ry="9"/>
<ellipse cx="138" cy="226" rx="4" ry="7"/>
<ellipse cx="162" cy="226" rx="4" ry="7"/>
<ellipse cx="150" cy="240" rx="5" ry="9"/>
</g>
<path d="M60 270 q90 -30 180 0" stroke="#1B3A8F" stroke-width="3" fill="none"/>
<text x="150" y="48" font-family="Georgia,serif" font-size="14" font-weight="700" text-anchor="middle" fill="#1B3A8F">COLD PRESSED</text>
</svg>
