<svg xmlns="http://www.w3.org/2000/svg" viewBox="0 0 800 400" width="800" height="400" role="img" aria-labelledby="t-handi">
<title id="t-handi">Round-bellied handi cooking pot — section divider</title>
<line x1="40" y1="320" x2="280" y2="320" stroke="#C9A200" stroke-width="1.5" opacity="0.6"/>
<line x1="520" y1="320" x2="760" y2="320" stroke="#C9A200" stroke-width="1.5" opacity="0.6"/>
<g transform="translate(400 200)">
<path d="M-90 -40 q-20 80 0 130 q15 22 90 22 q75 0 90 -22 q20 -50 0 -130 z" fill="#6B3A20" stroke="#1B3A8F" stroke-width="3"/>
<ellipse cx="0" cy="-42" rx="92" ry="14" fill="#142D6F"/>
<ellipse cx="0" cy="-42" rx="86" ry="9" fill="#6B3A20"/>
<path d="M-92 -42 q-14 -6 -8 -22 q3 -8 16 -6" fill="none" stroke="#1B3A8F" stroke-width="3"/>
<path d="M92 -42 q14 -6 8 -22 q-3 -8 -16 -6" fill="none" stroke="#1B3A8F" stroke-width="3"/>
<g fill="#E8701E" opacity="0.7">
<ellipse cx="-30" cy="-55" rx="4" ry="2"/>
<ellipse cx="-10" cy="-60" rx="3" ry="2"/>
<ellipse cx="20" cy="-58" rx="4" ry="2"/>
<ellipse cx="40" cy="-65" rx="3" ry="2"/>
</g>
</g>
<circle cx="140" cy="320" r="3" fill="#C9A200"/>
<circle cx="660" cy="320" r="3" fill="#C9A200"/>
</svg>
