<svg xmlns="http://www.w3.org/2000/svg" viewBox="0 0 800 400" width="800" height="400" role="img" aria-labelledby="t-kadhai">
<title id="t-kadhai">Kadhai cooking pan — section divider</title>
<line x1="40" y1="280" x2="260" y2="280" stroke="#C9A200" stroke-width="1.5" opacity="0.6"/>
<line x1="540" y1="280" x2="760" y2="280" stroke="#C9A200" stroke-width="1.5" opacity="0.6"/>
<g transform="translate(400 200)">
<path d="M-130 -10 q40 130 130 130 q90 0 130 -130 z" fill="#1A1A1A" stroke="#1B3A8F" stroke-width="3"/>
<rect x="-130" y="-22" width="260" height="14" rx="3" fill="#142D6F"/>
<rect x="-180" y="-26" width="56" height="14" rx="6" fill="#6B3A20"/>
<rect x="124" y="-26" width="56" height="14" rx="6" fill="#6B3A20"/>
<circle cx="-152" cy="-19" r="3" fill="#C9A200"/>
<circle cx="152" cy="-19" r="3" fill="#C9A200"/>
<g fill="#E8701E">
<circle cx="-60" cy="40" r="14"/><circle cx="-20" cy="60" r="10"/>
<circle cx="30" cy="48" r="14"/><circle cx="70" cy="62" r="9"/>
</g>
<g fill="#1A7A2A" opacity="0.85">
<ellipse cx="-30" cy="80" rx="7" ry="4"/>
<ellipse cx="50" cy="84" rx="8" ry="4"/>
</g>
</g>
<circle cx="140" cy="280" r="3" fill="#C9A200"/>
<circle cx="660" cy="280" r="3" fill="#C9A200"/>
</svg>
