<svg xmlns="http://www.w3.org/2000/svg" viewBox="0 0 200 200" width="200" height="200" role="img" aria-labelledby="t-mustard">
<title id="t-mustard">Branch with mustard flowers</title>
<path d="M100 180 v-150" stroke="#1A7A2A" stroke-width="4" fill="none" stroke-linecap="round"/>
<path d="M100 150 q-22 -8 -36 -28" stroke="#1A7A2A" stroke-width="3" fill="none" stroke-linecap="round"/>
<path d="M100 120 q22 -8 36 -28" stroke="#1A7A2A" stroke-width="3" fill="none" stroke-linecap="round"/>
<path d="M100 92 q-22 -8 -36 -28" stroke="#1A7A2A" stroke-width="3" fill="none" stroke-linecap="round"/>
<path d="M64 122 q-20 8 -30 0 q12 14 30 8 z" fill="#1A7A2A"/>
<path d="M136 92 q20 8 30 0 q-12 14 -30 8 z" fill="#1A7A2A"/>
<g fill="#D4A017" stroke="#C9A200" stroke-width="1">
<circle cx="68" cy="38" r="7"/><circle cx="82" cy="28" r="7"/><circle cx="100" cy="24" r="8"/>
<circle cx="118" cy="28" r="7"/><circle cx="132" cy="38" r="7"/>
<circle cx="90" cy="46" r="6"/><circle cx="110" cy="46" r="6"/>
</g>
<g fill="#F5E6A0">
<circle cx="68" cy="38" r="2"/><circle cx="82" cy="28" r="2"/><circle cx="100" cy="24" r="2"/>
<circle cx="118" cy="28" r="2"/><circle cx="132" cy="38" r="2"/>
</g>
</svg>
