<svg xmlns="http://www.w3.org/2000/svg" viewBox="0 0 400 100" width="400" height="100" role="img" aria-labelledby="t-rangoli">
<title id="t-rangoli">Geometric rangoli-inspired border</title>
<g fill="none" stroke="#E8701E" stroke-width="2">
<path d="M0 50 H400"/>
</g>
<g>
<g transform="translate(50 50)" fill="#E8701E">
<circle r="6"/>
<g fill="none" stroke="#E8701E" stroke-width="2">
<path d="M-22 0 L22 0"/><path d="M0 -22 L0 22"/>
<path d="M-15 -15 L15 15"/><path d="M-15 15 L15 -15"/>
</g>
</g>
<g transform="translate(125 50)" fill="#C9A200">
<polygon points="0,-16 14,-5 9,12 -9,12 -14,-5"/>
</g>
<g transform="translate(200 50)" fill="#E8701E">
<circle r="10"/><circle r="6" fill="#C9A200"/><circle r="3" fill="#1B3A8F"/>
</g>
<g transform="translate(275 50)" fill="#C9A200">
<polygon points="0,-16 14,-5 9,12 -9,12 -14,-5"/>
</g>
<g transform="translate(350 50)" fill="#E8701E">
<circle r="6"/>
<g fill="none" stroke="#E8701E" stroke-width="2">
<path d="M-22 0 L22 0"/><path d="M0 -22 L0 22"/>
<path d="M-15 -15 L15 15"/><path d="M-15 15 L15 -15"/>
</g>
</g>
</g>
</svg>
