<svg xmlns="http://www.w3.org/2000/svg" viewBox="0 0 200 200" width="200" height="200" role="img" aria-labelledby="t-sesame">
<title id="t-sesame">Cluster of sesame seeds</title>
<circle cx="100" cy="105" r="76" fill="#FAF8F2" stroke="#C9A200" stroke-width="2" opacity="0.5"/>
<ellipse cx="60" cy="80" rx="11" ry="5" fill="#F5E6A0" stroke="#8B6914" stroke-width="1.4" transform="rotate(0 60 80)"/><ellipse cx="90" cy="68" rx="11" ry="5" fill="#F5E6A0" stroke="#8B6914" stroke-width="1.4" transform="rotate(23 90 68)"/><ellipse cx="120" cy="76" rx="11" ry="5" fill="#F5E6A0" stroke="#8B6914" stroke-width="1.4" transform="rotate(46 120 76)"/><ellipse cx="80" cy="100" rx="11" ry="5" fill="#F5E6A0" stroke="#8B6914" stroke-width="1.4" transform="rotate(69 80 100)"/><ellipse cx="110" cy="96" rx="11" ry="5" fill="#F5E6A0" stroke="#8B6914" stroke-width="1.4" transform="rotate(92 110 96)"/><ellipse cx="140" cy="90" rx="11" ry="5" fill="#F5E6A0" stroke="#8B6914" stroke-width="1.4" transform="rotate(115 140 90)"/><ellipse cx="70" cy="124" rx="11" ry="5" fill="#F5E6A0" stroke="#8B6914" stroke-width="1.4" transform="rotate(138 70 124)"/><ellipse cx="100" cy="118" rx="11" ry="5" fill="#F5E6A0" stroke="#8B6914" stroke-width="1.4" transform="rotate(161 100 118)"/><ellipse cx="130" cy="124" rx="11" ry="5" fill="#F5E6A0" stroke="#8B6914" stroke-width="1.4" transform="rotate(4 130 124)"/><ellipse cx="86" cy="144" rx="11" ry="5" fill="#F5E6A0" stroke="#8B6914" stroke-width="1.4" transform="rotate(27 86 144)"/><ellipse cx="116" cy="144" rx="11" ry="5" fill="#F5E6A0" stroke="#8B6914" stroke-width="1.4" transform="rotate(50 116 144)"/><ellipse cx="60" cy="110" rx="11" ry="5" fill="#F5E6A0" stroke="#8B6914" stroke-width="1.4" transform="rotate(73 60 110)"/><ellipse cx="140" cy="114" rx="11" ry="5" fill="#F5E6A0" stroke="#8B6914" stroke-width="1.4" transform="rotate(96 140 114)"/><ellipse cx="96" cy="140" rx="11" ry="5" fill="#F5E6A0" stroke="#8B6914" stroke-width="1.4" transform="rotate(119 96 140)"/><ellipse cx="72" cy="90" rx="11" ry="5" fill="#F5E6A0" stroke="#8B6914" stroke-width="1.4" transform="rotate(142 72 90)"/><ellipse cx="112" cy="72" rx="11" ry="5" fill="#F5E6A0" stroke="#8B6914" stroke-width="1.4" transform="rotate(165 112 72)"/>
</svg>
