<svg xmlns="http://www.w3.org/2000/svg" viewBox="0 0 300 300" width="300" height="300" role="img" aria-labelledby="t-churner">
<title id="t-churner">Vertical wooden churner with handle</title>
<ellipse cx="150" cy="252" rx="80" ry="14" fill="#6B3A20" opacity="0.25"/>
<path d="M90 100 q-4 80 12 140 h96 q16 -60 12 -140 z" fill="#C17F3B" stroke="#6B3A20" stroke-width="3"/>
<ellipse cx="150" cy="100" rx="60" ry="14" fill="#6B3A20"/>
<ellipse cx="150" cy="100" rx="56" ry="11" fill="#F5E6A0"/>
<rect x="142" y="30" width="16" height="80" fill="#6B3A20"/>
<rect x="116" y="20" width="68" height="12" rx="5" fill="#6B3A20"/>
<g stroke="#6B3A20" stroke-width="2" fill="none" opacity="0.5">
<path d="M96 130 q108 8 108 0"/><path d="M98 160 q104 10 100 0"/>
<path d="M100 195 q100 8 96 0"/>
</g>
<ellipse cx="130" cy="100" rx="5" ry="2" fill="#C9A200"/>
<ellipse cx="160" cy="100" rx="5" ry="2" fill="#C9A200"/>
<text x="150" y="285" font-family="Georgia,serif" font-size="13" font-weight="600" text-anchor="middle" fill="#1B3A8F">CHURNED SLOW</text>
</svg>
